<svg xmlns="http://www.w3.org/2000/svg" width="395.281" height="49.719" viewBox="0 0 395.281 49.719">
  <defs>
    <style>
      .cls-1 {
        fill: #4a246e;
        fill-rule: evenodd;
      }
    </style>
  </defs>
  <path id="SHU_YAMINO" data-name="SHU YAMINO" class="cls-1" d="M69.688,192.2q-7.7,0-12.428,3.955a12.923,12.923,0,0,0-4.729,10.424q0,11.426,14.168,16.629,9.809,3.621,9.809,8.4,0,6.433-8.191,6.434-10.23,0-10.23-8.93a22.1,22.1,0,0,1,.773-5.308l-6.715,1.476a26.937,26.937,0,0,0-.176,2.777q0,13.816,17.824,13.817,8.05,0,12.9-4.131A13.668,13.668,0,0,0,87.547,226.8q0-11.637-17.3-17.578-8.965-3.093-8.965-7.418,0-5.766,8.016-5.766,10.16,0,10.16,8.367a15.68,15.68,0,0,1-.422,3.235l6.469-1.2q0-14.238-15.82-14.238h0Zm49.939,24.926V241h13.922V193.012H119.626v19.3H108.271v-19.3H94.349V241h13.922V217.129h11.355Zm54.3-24.117v32.2q0,11.391-9.457,11.39-4.887,0-6.7-2.32t-1.81-8.648V193.012H142.038v32.2q0,16.558,18.246,16.558,18.317,0,18.316-16.558v-32.2h-4.676Zm63.245,0-8.789,23.133-9.773-23.133h-14.45L217.1,223.281V241h13.922V223.281l11.707-30.269h-5.555Zm19,0L241.967,241h5.449l3.059-10.406h14.449L267.772,241h13.992L268.4,193.012H256.17Zm1.793,11.5,5.66,21.269H251.846Zm58.587-11.5-8.191,28.968-8.226-28.968H286V241h4.675V208.164l9.6,32.836h7.77l9.351-33.4V241h13.43V193.012H316.55Zm23.326,0V241H353.8V193.012H339.876Zm53.384,0v32.8l-21.867-32.8h-8.824V241h4.675V210.625L387.283,241h10.653V193.012H393.26Zm11.3,23.414q0,25.383,21.34,25.383t21.34-24.821q0-24.819-20.953-24.82-21.728,0-21.727,24.258h0Zm26.666-16.067q1.389,4.36,1.389,16.629,0,12.306-1.389,16.647t-5.326,4.342q-3.937,0-5.326-4.342t-1.389-16.647q0-12.3,1.389-16.646T425.9,196Q429.84,196,431.228,200.359Z" transform="translate(-51.969 -192.156)"/>
</svg>
